	<svg version="1.0" xmlns="http://www.w3.org/2000/svg" width="143.000000pt" height="136.000000pt" viewBox="0 0 143.000000 136.000000" preserveAspectRatio="xMidYMid meet">
								<g transform="translate(0.000000,136.000000) scale(0.100000,-0.100000)" fill="white" stroke="none">
									<path
										d="M382 1347 c-6 -7 -22 -42 -36 -79 -48 -129 -106 -203 -219 -280 -52
                        -36 -91 -82 -118 -142 -10 -21 -6 -28 39 -70 91 -85 139 -217 149 -406 3 -63
                        10 -121 16 -127 14 -18 42 -16 84 7 127 68 395 -45 490 -207 26 -45 51 -54 73
                        -28 28 33 75 59 128 69 30 6 59 18 63 26 19 36 38 89 48 142 27 130 135 276
                        250 337 33 17 63 36 65 40 3 5 8 33 12 63 l6 54 -39 12 c-98 29 -207 141 -238
                        245 -18 60 -20 205 -4 275 20 86 9 90 -72 28 -159 -121 -295 -158 -443 -120
                        -82 21 -133 52 -194 118 -37 41 -53 52 -60 43z m45 -68 c162 -180 439 -188
                        652 -19 l53 42 -8 -33 c-5 -19 -9 -86 -9 -149 0 -103 3 -121 26 -170 34 -72
                        78 -125 142 -173 29 -21 54 -41 56 -43 2 -2 -9 -8 -25 -14 -141 -54 -282 -274
                        -272 -425 3 -49 1 -55 -17 -55 -43 -1 -103 -38 -127 -79 -13 -23 -25 -41 -28
                        -41 -3 0 -18 23 -35 51 -41 68 -153 175 -212 201 -65 29 -167 35 -229 14 -26
                        -9 -51 -16 -56 -16 -4 0 -8 24 -8 53 -1 172 -53 305 -170 430 l-70 75 70 52
                        c39 29 86 71 106 94 38 44 84 134 105 204 7 23 14 42 16 42 2 0 20 -18 40 -41z
                        m-194 -576 c48 -93 57 -133 58 -263 0 -91 -3 -117 -18 -143 -11 -18 -23 -32
                        -29 -32 -5 0 -12 58 -15 130 -6 106 -12 144 -34 205 -33 89 -64 141 -117 197
                        l-40 41 18 32 19 32 61 -66 c34 -36 77 -96 97 -133z m1163 -9 c-3 -9 -6 -22
                        -6 -29 0 -7 -26 -28 -57 -45 -78 -44 -170 -140 -216 -225 l-38 -70 5 44 c11
                        103 121 254 226 311 62 33 96 39 86 14z m-841 -339 c108 -29 216 -118 270
                        -225 38 -75 18 -84 -33 -16 -93 123 -325 228 -436 198 -45 -13 -47 2 -3 24 67
                        36 119 40 202 19z m489 -177 c-13 -44 -23 -52 -78 -63 -31 -6 -56 -9 -56 -6 0
                        12 37 62 56 76 10 8 34 15 52 15 30 0 33 -2 26 -22z"
									></path>
									<path
										d="M376 1135 c-18 -45 -80 -116 -151 -171 -50 -40 -39 -56 14 -21 81 54
                        153 143 166 205 10 47 -9 39 -29 -13z"
									></path>
									<path
										d="M1007 1113 c-23 -22 9 -153 55 -226 47 -73 158 -166 158 -131 0 4
                        -28 33 -63 65 -76 69 -126 166 -130 248 -2 49 -6 58 -20 44z"
									></path>
									<path
										d="M842 1027 c-15 -16 -22 -36 -22 -65 0 -36 7 -49 50 -97 54 -59 59
                        -72 34 -82 -16 -6 -35 11 -48 41 -3 7 -10 4 -20 -7 -21 -26 -3 -72 35 -87 24
                        -10 33 -10 54 4 60 40 57 93 -10 165 -30 32 -45 57 -45 75 0 38 28 33 38 -6
                        11 -43 36 -43 40 -1 2 24 -3 39 -22 58 -31 31 -56 32 -84 2z"
									></path>
									<path
										d="M697 1009 c-38 -22 -61 -89 -62 -177 0 -82 1 -84 33 -113 36 -33 76
                        -37 110 -13 37 26 28 44 -23 44 -35 0 -47 4 -56 22 -9 17 -9 23 0 26 52 17
                        110 116 97 166 -12 50 -56 70 -99 45z m43 -73 c0 -23 -9 -45 -25 -63 l-24 -28
                        -1 30 c0 27 32 95 45 95 3 0 5 -15 5 -34z"
									></path>
									<path
										d="M425 990 c-4 -6 -7 -46 -7 -88 0 -135 44 -199 107 -158 l25 16 0 -35
                        c0 -39 -24 -105 -38 -105 -5 0 -17 9 -27 20 -23 26 -45 26 -45 -1 0 -52 48
                        -87 96 -69 16 6 32 27 46 56 18 43 20 58 13 188 -8 155 -16 189 -42 184 -14
                        -3 -21 -23 -33 -97 -20 -127 -50 -133 -50 -10 0 66 -10 109 -26 109 -7 0 -16
                        -5 -19 -10z"
									></path>
									<path
										d="M826 689 c-64 -15 -176 -79 -176 -100 0 -26 5 -25 96 18 61 28 96 37
                        152 41 76 5 92 13 72 37 -14 17 -82 18 -144 4z"
									></path>
									<path
										d="M460 458 c-22 -10 -17 -12 55 -19 127 -11 184 -38 281 -132 72 -69
                        80 -42 9 32 -70 73 -163 119 -256 126 -39 3 -74 0 -89 -7z"
									></path>
									<path
										d="M635 1262 c-24 -24 99 -60 154 -45 54 14 53 36 0 28 -26 -3 -65 0
                        -96 8 -29 8 -55 12 -58 9z"
									></path>
									<path
										d="M1217 1087 c-18 -47 45 -177 85 -177 l21 0 -20 23 c-30 32 -51 79
                        -59 126 -7 41 -17 52 -27 28z"
									></path>
								</g>
							</svg>