<svg version="1.0" xmlns="http://www.w3.org/2000/svg" width="186.000000pt" height="134.000000pt" viewBox="0 0 186.000000 134.000000" preserveAspectRatio="xMidYMid meet">
								<g transform="translate(0.000000,134.000000) scale(0.100000,-0.100000)" fill="white" stroke="none">
									<path
										d="M1815 1328 c-12 -35 -35 -236 -35 -306 0 -83 7 -98 38 -88 15 5 20
                       27 30 154 7 81 12 171 12 200 0 46 -2 52 -20 52 -11 0 -23 -6 -25 -12z"
									></path>
									<path
										d="M1419 1077 c-19 -12 -44 -43 -56 -67 -12 -25 -61 -125 -108 -223 -66
                       -136 -97 -190 -134 -228 -26 -27 -52 -49 -58 -49 -5 0 -18 9 -29 21 -16 18
                       -19 37 -19 133 1 94 4 119 24 163 12 28 34 61 47 74 23 22 25 22 42 6 14 -14
                       17 -34 15 -102 -1 -77 0 -85 17 -85 44 0 54 163 13 218 -26 35 -72 40 -117 12
                       -45 -27 -55 -44 -132 -222 -117 -271 -150 -324 -176 -287 -9 14 -4 255 8 316
                       5 26 2 32 -16 38 -14 4 -27 2 -35 -6 -8 -8 -47 -100 -89 -206 -76 -194 -104
                       -258 -111 -251 -3 2 4 85 16 184 11 98 21 210 22 247 2 62 0 71 -22 88 -13 10
                       -30 19 -38 19 -26 0 -102 -84 -152 -168 l-49 -82 -7 42 c-10 61 -22 78 -53 78
                       -59 0 -123 -69 -183 -196 -44 -92 -52 -154 -20 -154 13 0 24 16 41 61 28 77
                       80 166 118 202 43 41 45 22 22 -151 -11 -81 -22 -165 -25 -188 -10 -76 46 -85
                       65 -10 46 177 141 391 207 463 l34 38 -5 -55 c-4 -30 -13 -113 -22 -185 -8
                       -72 -16 -169 -17 -216 -2 -96 8 -119 52 -119 47 0 82 52 146 219 35 89 40 90
                       48 8 6 -58 37 -97 78 -97 45 0 86 45 139 154 36 74 50 94 50 74 0 -42 29 -105
                       55 -122 76 -50 166 9 245 158 19 36 38 66 43 66 4 0 7 -12 7 -27 0 -40 31 -96
                       60 -110 14 -7 44 -13 68 -13 69 0 120 55 199 217 35 73 63 141 61 150 -2 12
                       -12 18 -28 18 -21 0 -33 -15 -80 -102 -98 -180 -138 -226 -178 -204 -24 13
                       -28 23 -37 93 l-7 54 39 16 c104 40 197 256 131 302 -31 22 -69 20 -109 -7z"
									></path>
									<path
										d="M1333 459 c-136 -17 -513 -161 -674 -256 -103 -61 -199 -147 -199
                       -179 0 -38 35 -30 95 24 112 99 277 182 544 273 144 49 221 71 294 84 34 5 38
                       9 35 33 -3 31 -11 33 -95 21z"
									></path>
								</g>
							</svg>