	<svg
							version="1.0"
							xmlns="http://www.w3.org/2000/svg"
							width="111.000000pt"
							height="104.000000pt"
							viewBox="0 0 111.000000 104.000000"
							preserveAspectRatio="xMidYMid meet"
						>
							<g transform="translate(0.000000,104.000000) scale(0.100000,-0.100000)" fill="#f47920" stroke="none">
								<path
									d="M23 1027 c3 -7 77 -122 166 -256 l160 -242 -167 -252 c-93 -139 -172
                              -258 -176 -264 -6 -10 34 -13 187 -13 l194 0 79 130 c43 71 82 130 85 130 3 0
                              41 -58 85 -130 l79 -130 198 0 c156 0 197 3 190 13 -4 6 -83 126 -175 266 -92
                              140 -164 259 -161 265 4 6 78 118 165 248 87 131 158 240 158 243 0 3 -87 4
                              -192 3 l-193 -3 -68 -110 c-37 -60 -71 -113 -76 -118 -4 -4 -40 46 -80 113
                              l-72 120 -196 0 c-156 0 -194 -3 -190 -13z"
								></path>
							</g>
						</svg>