<svg version="1.0" xmlns="http://www.w3.org/2000/svg" width="88.000000pt" height="59.000000pt" viewBox="0 0 88.000000 59.000000" preserveAspectRatio="xMidYMid meet">
							<g transform="translate(0.000000,59.000000) scale(0.100000,-0.100000)" fill="white" stroke="none">
								<path
									d="M735 543 c-64 -59 -136 -93 -197 -93 -25 0 -94 11 -152 25 -119 28
                           -210 32 -261 11 -51 -22 -125 -75 -125 -90 0 -27 27 -23 84 12 81 50 152 54
                           308 17 128 -31 188 -29 265 7 59 28 164 124 156 144 -9 23 -25 16 -78 -33z"
								></path>
								<path
									d="M747 471 c-106 -99 -179 -112 -373 -65 -131 31 -189 29 -267 -11 -71
                           -35 -106 -70 -88 -88 9 -9 19 -8 44 7 122 73 166 79 325 41 187 -45 273 -27
                           387 77 57 52 66 72 39 82 -10 4 -33 -11 -67 -43z"
								></path>
								<path
									d="M761 396 c-52 -53 -119 -88 -180 -94 -28 -2 -90 6 -160 23 -179 41
                           -252 35 -352 -32 -39 -26 -53 -63 -24 -63 8 0 36 13 63 30 73 45 133 54 223
                           35 215 -47 222 -48 282 -35 90 18 238 127 224 164 -10 26 -30 18 -76 -28z"
								></path>
								<path
									d="M776 321 c-21 -21 -60 -51 -88 -66 -66 -36 -128 -36 -291 0 -116 26
                           -133 28 -185 17 -62 -13 -165 -71 -170 -96 -6 -29 25 -28 74 4 91 57 141 62
                           292 25 140 -34 210 -33 287 4 71 34 155 105 155 132 0 31 -33 22 -74 -20z"
								></path>
								<path
									d="M785 243 c-63 -58 -136 -93 -195 -93 -25 0 -92 11 -150 25 -180 42
                           -268 30 -365 -49 -27 -22 -28 -26 -15 -40 13 -13 21 -11 69 19 95 60 138 61
                           366 10 82 -19 147 -14 213 17 57 27 168 130 158 146 -12 20 -29 13 -81 -35z"
								></path>
								<path
									d="M797 171 c-106 -99 -168 -110 -367 -65 -138 31 -195 29 -273 -11 -70
                           -35 -100 -65 -87 -85 8 -13 14 -12 42 4 125 74 162 78 328 41 191 -43 271 -27
                           385 77 57 52 66 72 39 82 -10 4 -33 -11 -67 -43z"
								></path>
							</g>
						</svg>