<svg version="1.0" xmlns="http://www.w3.org/2000/svg" width="166.000000pt" height="188.000000pt" viewBox="0 0 166.000000 188.000000" preserveAspectRatio="xMidYMid meet">

<g transform="translate(0.000000,188.000000) scale(0.100000,-0.100000)" fill="#d6e033" stroke="none">
<path d="M920 1854 c0 -4 47 -79 106 -167 58 -87 103 -161 101 -163 -2 -2 -25
3 -51 12 -26 9 -49 14 -52 11 -3 -3 61 -99 142 -215 l148 -209 165 -61 c91
-33 168 -59 169 -57 2 2 -39 65 -92 140 -53 74 -96 137 -96 139 0 2 25 -2 56
-11 31 -8 57 -13 59 -11 1 2 -146 137 -326 301 -181 163 -329 294 -329 291z"></path>
<path d="M887 924 c-250 -19 -233 -13 -154 -59 84 -49 88 -47 -168 -70 -104
-9 -206 -19 -225 -22 -25 -5 84 -26 395 -79 237 -40 446 -76 465 -79 32 -5 28
-2 -38 43 l-74 50 89 12 c154 20 153 12 14 123 -67 53 -125 96 -129 96 -4 -1
-83 -8 -175 -15z"></path>
<path d="M750 480 c-157 -60 -289 -111 -295 -113 -5 -2 36 -21 92 -43 57 -21
99 -42 95 -46 -4 -4 -146 -66 -315 -139 -169 -72 -306 -133 -305 -134 2 -2
284 25 628 59 494 50 620 65 600 73 -83 36 -182 84 -179 87 2 2 76 36 164 76
88 40 164 76 168 80 10 9 -326 210 -350 209 -10 0 -146 -49 -303 -109z"></path>
</g>
</svg>