	<svg version="1.0" xmlns="http://www.w3.org/2000/svg" width="271.000000pt" height="213.000000pt" viewBox="0 0 271.000000 213.000000" preserveAspectRatio="xMidYMid meet">
								<g transform="translate(0.000000,213.000000) scale(0.100000,-0.100000)" fill="#223983" stroke="none">
									<path
										d="M1342 2036 c-55 -108 -118 -196 -141 -196 -23 0 -177 92 -238 143
                           -41 34 -48 37 -51 21 -8 -58 -38 -167 -59 -222 l-25 -63 -47 7 c-25 4 -80 15
                           -121 25 -41 9 -76 16 -78 14 -2 -2 2 -14 9 -27 16 -30 39 -125 31 -132 -3 -3
                           -58 -6 -123 -6 -107 0 -270 22 -334 46 -27 10 -15 -2 75 -68 84 -63 190 -169
                           238 -240 l32 -46 -49 -31 c-89 -58 -295 -119 -410 -122 l-36 -1 35 -10 c211
                           -59 400 -134 400 -158 0 -6 -23 -36 -51 -66 l-52 -54 52 0 c61 0 193 -28 203
                           -43 13 -21 18 -114 8 -167 -5 -30 -23 -81 -40 -113 -23 -47 -26 -57 -12 -51
                           114 50 307 88 322 63 24 -38 19 -290 -7 -398 -5 -20 16 -5 93 70 87 83 196
                           169 215 169 14 0 98 -187 125 -277 l28 -91 36 96 c43 113 69 167 117 239 l35
                           53 41 -22 c59 -30 143 -96 208 -164 l56 -59 11 110 c10 105 43 238 61 249 13
                           9 157 -32 228 -64 62 -28 65 -29 49 -7 -21 30 -62 107 -70 135 -7 21 -6 22 67
                           22 89 0 213 -21 322 -54 61 -19 74 -21 55 -8 -145 99 -353 324 -337 366 13 34
                           279 145 422 177 l59 13 -94 14 c-152 21 -350 99 -350 137 0 8 29 43 65 79 l64
                           66 -60 0 c-33 0 -91 7 -129 16 -67 15 -70 17 -76 51 -13 67 1 177 28 225 l24
                           44 -60 -13 c-34 -7 -109 -16 -168 -19 -100 -6 -108 -6 -115 12 -10 26 -10 227
                           1 293 l8 53 -68 -57 c-66 -56 -209 -155 -224 -155 -13 0 -67 90 -112 188 l-43
                           91 -43 -83z"
									></path>
								</g>
							</svg>