<svg version="1.0" xmlns="http://www.w3.org/2000/svg" width="160.000000pt" height="160.000000pt" viewBox="0 0 160.000000 160.000000" preserveAspectRatio="xMidYMid meet">
								<g transform="translate(0.000000,160.000000) scale(0.100000,-0.100000)" fill="white" stroke="none">
									<path
										d="M620 1585 c-36 -8 -116 -40 -178 -70 -134 -67 -236 -156 -313 -273
                              -90 -137 -129 -272 -129 -446 0 -141 20 -221 85 -354 67 -134 156 -236 273
                              -313 137 -90 272 -129 446 -129 141 0 221 20 354 85 134 67 236 156 313 273
                              90 137 129 272 129 446 0 141 -20 221 -85 354 -45 90 -72 130 -128 189 -118
                              125 -277 214 -431 242 -81 15 -257 12 -336 -4z m395 -45 c135 -42 221 -96 325
                              -200 106 -105 158 -191 202 -330 19 -63 23 -96 23 -210 0 -156 -17 -228 -88
                              -365 -58 -113 -199 -254 -312 -312 -137 -71 -209 -88 -365 -88 -156 0 -228 17
                              -365 88 -113 58 -254 199 -312 312 -71 137 -88 209 -88 365 0 156 17 228 88
                              365 58 113 200 254 312 312 148 75 227 93 390 89 88 -3 138 -10 190 -26z"
									></path>
									<path
										d="M709 1370 c-210 -33 -394 -192 -461 -400 -29 -93 -29 -251 1 -340 64
                              -186 201 -324 381 -382 93 -29 251 -29 340 1 186 64 324 201 382 381 29 93 29
                              251 -1 340 -80 235 -272 386 -511 403 -41 3 -100 2 -131 -3z m216 -35 c202
                              -52 358 -208 410 -410 72 -283 -115 -584 -410 -660 -283 -72 -584 115 -660
                              410 -72 281 113 582 405 659 73 19 182 20 255 1z"
									></path>
									<path
										d="M671 1274 c-82 -22 -150 -62 -216 -129 -98 -97 -145 -210 -145 -345
                              0 -135 47 -248 145 -345 97 -98 210 -145 345 -145 135 0 248 47 345 145 68 68
                              107 135 130 220 30 116 14 253 -43 359 -34 65 -133 164 -198 198 -105 56 -249
                              73 -363 42z m228 -39 c178 -42 313 -187 343 -368 48 -291 -223 -559 -513 -508
                              -191 35 -339 184 -371 374 -30 184 74 382 244 466 103 51 189 61 297 36z"
									></path>
									<path
										d="M689 1135 c-297 -95 -323 -521 -40 -654 48 -22 69 -26 151 -26 82 0
                              103 4 151 26 72 34 134 96 168 168 22 48 26 69 26 151 0 82 -4 103 -26 151
                              -57 121 -165 191 -304 196 -51 2 -97 -3 -126 -12z m234 -43 c65 -29 140 -103
                              168 -165 32 -71 33 -182 2 -249 -30 -67 -104 -141 -166 -169 -71 -32 -182 -33
                              -249 -2 -67 30 -141 104 -169 166 -32 71 -33 182 -2 249 25 55 94 133 137 155
                              90 47 194 53 279 15z"
									></path>
									<path
										d="M705 996 c-59 -27 -77 -46 -104 -106 -26 -57 -26 -123 0 -180 27 -60
                              45 -79 104 -106 64 -31 126 -31 190 0 59 27 77 46 104 106 27 60 26 123 -3
                              185 -27 59 -46 77 -106 104 -60 27 -123 26 -185 -3z m160 -35 c83 -37 129
                              -126 106 -203 -17 -54 -75 -112 -129 -129 -117 -35 -248 95 -213 211 22 74
                              103 140 171 140 14 0 43 -9 65 -19z"
									></path>
									<path
										d="M735 946 c-101 -44 -125 -178 -46 -257 65 -65 157 -65 222 0 124 124
                              -15 327 -176 257z m100 -26 c25 0 74 -51 84 -86 26 -93 -60 -179 -152 -153
                              -91 25 -121 144 -53 208 25 24 73 42 94 35 8 -2 20 -4 27 -4z"
									></path>
								</g>
							</svg>