<svg version="1.0" xmlns="http://www.w3.org/2000/svg" width="223.000000pt" height="375.000000pt" viewBox="0 0 223.000000 375.000000" preserveAspectRatio="xMidYMid meet">
								<g transform="translate(0.000000,375.000000) scale(0.100000,-0.100000)" fill="#000000" stroke="none">
									<path
										d="M1101 2643 c-606 -608 -1101 -1112 -1101 -1120 0 -7 3 -13 8 -13 13
                              0 2222 2214 2222 2228 0 6 -6 12 -14 12 -8 0 -510 -498 -1115 -1107z"
									></path>
									<path
										d="M1107 2432 c-625 -625 -1107 -1115 -1107 -1125 0 -9 3 -17 8 -17 16
                              0 2222 2216 2222 2233 0 9 -3 17 -8 17 -4 0 -505 -498 -1115 -1108z"
									></path>
									<path
										d="M1102 2211 c-606 -610 -1102 -1114 -1102 -1120 0 -6 6 -11 13 -11 16
                              0 2217 2213 2217 2229 0 6 -6 11 -12 11 -7 0 -509 -499 -1116 -1109z"
									></path>
									<path
										d="M1107 2001 c-609 -610 -1107 -1116 -1107 -1125 0 -9 3 -16 8 -16 16
                              0 2222 2216 2222 2233 0 9 -4 17 -8 17 -5 0 -506 -499 -1115 -1109z"
									></path>
									<path
										d="M1107 1782 c-625 -625 -1107 -1115 -1107 -1125 0 -9 4 -17 8 -17 16
                              0 2222 2218 2222 2234 0 9 -3 16 -8 16 -4 0 -505 -498 -1115 -1108z"
									></path>
									<path
										d="M1102 1561 c-606 -610 -1102 -1114 -1102 -1121 0 -6 6 -10 14 -8 19
                              4 2216 2213 2216 2227 0 6 -6 11 -13 11 -8 0 -509 -499 -1115 -1109z"
									></path>
									<path
										d="M1107 1352 c-625 -625 -1107 -1115 -1107 -1125 0 -9 3 -17 8 -17 16
                              0 2222 2216 2222 2233 0 9 -3 17 -8 17 -4 0 -505 -498 -1115 -1108z"
									></path>
									<path
										d="M1107 1132 c-609 -609 -1107 -1113 -1107 -1120 0 -6 6 -12 14 -12 18
                              0 2216 2209 2216 2227 0 7 -3 13 -8 13 -4 0 -505 -498 -1115 -1108z"
									></path>
								</g>
							</svg>