	<svg version="1.0" xmlns="http://www.w3.org/2000/svg" width="76.000000pt" height="96.000000pt" viewBox="0 0 76.000000 96.000000" preserveAspectRatio="xMidYMid meet">
								<g transform="translate(0.000000,96.000000) scale(0.100000,-0.100000)" fill="#000000" stroke="none">
									<path
										d="M12 948 c-15 -15 -15 -51 0 -66 28 -28 78 -7 78 33 0 27 -18 45 -45
												 45 -12 0 -26 -5 -33 -12z m62 -20 c8 -14 7 -21 -6 -34 -30 -30 -75 9 -48 42
												 16 18 39 15 54 -8z"
									></path>
									<path
										d="M182 938 c-17 -17 -15 -32 7 -52 16 -14 23 -15 41 -6 31 17 24 64
												 -10 68 -14 2 -31 -3 -38 -10z"
									></path>
									<path
										d="M351 936 c-7 -8 -10 -24 -6 -35 14 -45 79 -30 73 17 -2 21 -9 28 -29
												 30 -14 2 -31 -4 -38 -12z"
									></path>
									<path
										d="M516 932 c-13 -41 19 -71 55 -51 14 7 19 19 17 37 -2 22 -9 28 -35
												 30 -24 2 -33 -1 -37 -16z"
									></path>
									<path
										d="M687 943 c-14 -14 -6 -53 13 -63 38 -20 70 12 54 54 -6 16 -54 22
												 -67 9z"
									></path>
									<path
										d="M20 726 c-6 -8 -10 -25 -8 -38 4 -30 46 -38 65 -12 17 23 16 29 -3
												 48 -19 20 -38 20 -54 2z"
									></path>
									<path
										d="M186 724 c-19 -19 -20 -25 -3 -48 19 -26 61 -18 65 12 7 44 -32 67
												 -62 36z"
									></path>
									<path
										d="M356 724 c-20 -19 -20 -38 -2 -54 23 -19 61 -8 64 18 7 44 -32 67
												 -62 36z"
									></path>
									<path
										d="M523 733 c-7 -2 -13 -17 -13 -32 0 -50 42 -68 75 -31 15 17 16 24 7
												 45 -11 24 -38 31 -69 18z m56 -17 c22 -26 -10 -63 -44 -50 -15 6 -21 45 -8 57
												 11 12 40 8 52 -7z"
									></path>
									<path
										d="M690 725 c-19 -23 -4 -65 23 -65 45 0 65 50 28 70 -26 14 -36 13 -51
												 -5z"
									></path>
									<path
										d="M22 511 c-8 -5 -12 -21 -10 -37 2 -23 9 -30 30 -32 19 -2 30 3 38 17
												 21 40 -20 77 -58 52z"
									></path>
									<path d="M180 500 c-16 -31 4 -62 38 -58 21 2 28 9 30 32 5 45 -47 65 -68 26z"></path>
									<path
										d="M350 505 c-15 -18 -10 -45 13 -59 34 -22 73 27 47 59 -16 19 -44 19
												 -60 0z"
									></path>
									<path
										d="M520 505 c-15 -18 -10 -45 13 -59 34 -22 73 27 47 59 -16 19 -44 19
												 -60 0z"
									></path>
									<path
										d="M690 505 c-26 -32 13 -81 48 -59 22 14 27 41 12 59 -16 19 -44 19
												 -60 0z"
									></path>
									<path
										d="M188 299 c-36 -21 -16 -79 27 -79 42 0 59 44 29 74 -18 18 -32 20
												 -56 5z m52 -14 c20 -24 3 -57 -28 -53 -30 3 -41 30 -22 53 16 19 34 19 50 0z"
									></path>
									<path
										d="M17 293 c-12 -12 -7 -50 8 -63 17 -14 51 -5 59 16 13 35 -41 73 -67
												 47z"
									></path>
									<path
										d="M351 286 c-16 -20 -5 -53 20 -61 27 -9 51 13 47 44 -2 20 -9 27 -29
												 29 -14 2 -31 -4 -38 -12z"
									></path>
									<path
										d="M522 288 c-20 -20 -14 -48 13 -60 34 -15 61 8 51 46 -7 28 -42 36
												 -64 14z"
									></path>
									<path
										d="M684 276 c-12 -49 43 -76 70 -33 15 24 -3 51 -37 55 -21 3 -28 -2
												 -33 -22z"
									></path>
									<path
										d="M27 79 c-23 -13 -22 -56 2 -69 25 -13 67 19 58 43 -9 24 -40 37 -60
												 26z"
									></path>
									<path
										d="M192 74 c-12 -8 -22 -21 -22 -29 0 -8 10 -21 22 -29 28 -20 58 -4 58
												 29 0 33 -30 49 -58 29z"
									></path>
									<path
										d="M356 74 c-22 -21 -20 -40 6 -58 15 -11 26 -12 40 -5 24 13 23 55 -1
												 69 -25 13 -27 13 -45 -6z"
									></path>
									<path
										d="M526 74 c-25 -24 -18 -55 14 -66 43 -15 70 50 31 72 -25 13 -27 13
												 -45 -6z"
									></path>
									<path
										d="M698 79 c-38 -22 -9 -85 32 -71 32 11 39 42 14 66 -18 19 -23 19 -46
												 5z"
									></path>
								</g>
							</svg>