<svg version="1.0" xmlns="http://www.w3.org/2000/svg" width="289.000000pt" height="288.000000pt" viewBox="0 0 289.000000 288.000000" preserveAspectRatio="xMidYMid meet">
<g transform="translate(0.000000,288.000000) scale(0.100000,-0.100000)" fill="white" stroke="none">
<path d="M2095 2092 c685 -683 780 -774 783 -752 4 22 -96 124 -754 777 -594
589 -764 752 -784 752 -20 1 129 -153 755 -777z"></path>
<path d="M2176 2178 c383 -381 700 -694 704 -696 50 -18 -99 140 -674 716
-561 562 -675 672 -698 672 -24 0 73 -101 668 -692z"></path>
<path d="M1180 2842 c0 -5 378 -383 839 -840 651 -646 840 -828 845 -815 10
24 -1629 1663 -1662 1663 -12 0 -22 -4 -22 -8z"></path>
<path d="M1940 2574 c151 -151 423 -420 603 -597 260 -254 327 -315 322 -291
-5 21 -157 179 -576 597 -475 473 -574 567 -596 567 -24 0 7 -35 247 -276z"></path>
<path d="M1925 1931 c489 -490 893 -891 896 -891 4 0 10 7 13 16 9 24 -1736
1758 -1773 1762 -20 2 185 -208 864 -887z"></path>
<path d="M2350 2336 c256 -256 466 -466 467 -466 0 0 -4 16 -10 35 -8 26 -114
138 -429 452 -230 229 -423 420 -430 424 -76 40 -13 -30 402 -445z"></path>
<path d="M920 2771 c0 -5 419 -426 932 -935 780 -775 934 -923 942 -908 8 14
-145 170 -914 934 -534 530 -932 918 -942 918 -10 0 -18 -4 -18 -9z"></path>
<path d="M807 2724 c-6 -6 1903 -1914 1923 -1922 4 -2 10 4 13 12 7 17 -1883
1909 -1911 1914 -10 2 -21 0 -25 -4z"></path>
<path d="M704 2668 c-5 -7 357 -374 981 -996 863 -862 989 -983 998 -967 9 17
-117 145 -974 997 -541 537 -987 977 -991 978 -4 0 -10 -5 -14 -12z"></path>
<path d="M2201 2653 c2 -5 110 -112 239 -239 224 -219 249 -238 155 -114 -61
79 -259 269 -334 319 -35 24 -62 39 -60 34z"></path>
<path d="M602 2602 c-9 -6 290 -309 996 -1010 802 -796 1012 -999 1021 -988 9
10 -196 219 -989 1010 -550 548 -1003 996 -1007 996 -5 0 -14 -4 -21 -8z"></path>
<path d="M512 2531 c-10 -6 275 -296 998 -1017 556 -555 1016 -1010 1021
-1012 5 -2 12 4 15 13 5 12 -257 278 -1001 1018 -554 551 -1010 1003 -1014
1004 -3 2 -12 -1 -19 -6z"></path>
<path d="M424 2448 c-5 -8 342 -360 1011 -1025 852 -846 1021 -1010 1033
-1000 13 10 -151 177 -1004 1024 -560 557 -1022 1013 -1026 1013 -4 0 -10 -5
-14 -12z"></path>
<path d="M344 2365 c-5 -12 244 -266 1001 -1018 554 -551 1014 -1003 1020
-1005 7 -2 16 1 19 6 5 9 -2003 2023 -2024 2030 -6 2 -13 -4 -16 -13z"></path>
<path d="M274 2275 c-5 -13 184 -208 792 -817 1018 -1019 1208 -1202 1223
-1185 9 11 -199 223 -999 1016 -777 771 -1011 999 -1016 986z"></path>
<path d="M206 2174 c-4 -9 -1 -23 5 -30 6 -8 449 -448 984 -979 746 -741 977
-964 990 -959 13 5 -135 159 -661 686 -980 981 -1310 1302 -1318 1282z"></path>
<path d="M147 2066 c-4 -11 287 -308 949 -968 526 -524 958 -954 962 -955 4
-2 13 1 21 6 11 7 -209 232 -948 968 -530 527 -967 959 -971 961 -4 2 -10 -4
-13 -12z"></path>
<path d="M97 1950 c-8 -30 1835 -1860 1865 -1852 23 6 -68 98 -1173 1193 -559
553 -688 675 -692 659z"></path>
<path d="M56 1823 c-5 -13 44 -68 201 -223 114 -114 512 -509 884 -879 526
-523 680 -670 694 -665 13 5 -172 196 -871 895 -489 489 -892 889 -895 889 -4
0 -10 -8 -13 -17z"></path>
<path d="M26 1693 c-5 -13 190 -214 811 -836 450 -450 826 -823 836 -828 10
-6 24 -6 32 -1 12 6 -183 205 -829 845 -647 642 -845 833 -850 820z"></path>
<path d="M10 1537 c0 -35 1498 -1520 1538 -1525 21 -3 -110 134 -598 623 -344
344 -696 694 -782 777 -135 129 -158 147 -158 125z"></path>
<path d="M0 1389 c0 -34 1354 -1389 1389 -1389 12 0 21 3 19 8 -1 4 -319 322
-705 706 -562 560 -703 695 -703 675z"></path>
<path d="M20 1199 c0 -18 124 -147 498 -522 554 -556 661 -657 694 -657 26 0
-109 138 -784 802 -321 315 -408 395 -408 377z"></path>
<path d="M75 990 c4 -14 13 -34 19 -46 6 -11 200 -207 432 -437 362 -358 464
-451 480 -434 2 1 -209 214 -467 472 -288 287 -468 460 -464 445z"></path>
<path d="M248 640 c58 -88 320 -349 400 -399 29 -19 54 -32 55 -30 1 2 -112
117 -252 254 -239 236 -251 246 -203 175z"></path>
</g>
</svg>