<svg class="wow_svg" version="1.0" xmlns="http://www.w3.org/2000/svg" width="139.000000pt" height="169.000000pt" viewBox="0 0 139.000000 169.000000" preserveAspectRatio="xMidYMid meet">

<g transform="translate(0.000000,169.000000) scale(0.100000,-0.100000)" fill="#d6e033" stroke="none">
<path d="M705 1648 c-319 -22 -585 -44 -592 -50 -14 -12 -113 -196 -113 -211
0 -13 606 -1334 626 -1365 22 -34 47 -27 74 20 13 24 36 54 51 68 27 25 71
131 496 1187 80 200 143 369 139 378 -7 19 13 20 -681 -27z m635 -8 c0 -5
-128 -324 -285 -709 -156 -384 -289 -711 -295 -726 -6 -15 -13 -26 -16 -23 -7
8 -594 1391 -591 1394 2 2 798 52 1165 73 12 0 22 -3 22 -9z m-1237 -221 c-42
-64 -48 -69 -60 -53 -11 15 -8 26 21 78 18 34 39 72 46 86 l13 25 14 -33 c13
-31 11 -35 -34 -103z m75 2 c9 -26 5 -36 -35 -97 -42 -62 -47 -66 -59 -49 -8
10 -14 24 -14 30 0 10 87 145 94 145 2 0 9 -13 14 -29z m47 -115 l17 -45 -42
-60 c-24 -34 -46 -61 -50 -61 -4 0 -15 19 -24 41 l-17 41 42 64 c23 35 45 64
49 64 5 0 16 -20 25 -44z m15 -191 c-23 -30 -46 -55 -51 -55 -5 0 -11 11 -15
24 -4 19 5 39 37 86 l44 61 14 -30 c14 -29 13 -32 -29 -86z m34 -92 c-47 -55
-47 -55 -60 -32 -14 27 -10 37 42 98 l37 43 14 -27 c14 -25 12 -29 -33 -82z
m70 0 c6 -15 -10 -44 -63 -113 l-20 -25 -9 25 c-10 27 -9 29 43 93 34 41 40
44 49 20z m15 -144 c-44 -55 -59 -66 -70 -48 -12 18 -7 28 38 89 l38 51 11
-28 c11 -25 9 -32 -17 -64z m58 -32 c10 -21 6 -31 -30 -75 -38 -47 -43 -50
-54 -35 -7 9 -13 23 -13 31 0 16 67 102 79 102 4 0 13 -11 18 -23z m42 -103
c13 -35 12 -37 -25 -75 -21 -21 -41 -39 -45 -39 -4 0 -12 13 -19 30 -11 27 -9
32 25 75 21 25 40 45 44 45 4 0 13 -16 20 -36z m41 -102 c0 -7 -17 -33 -37
-58 -37 -43 -37 -44 -49 -22 -11 20 -7 28 28 71 30 36 43 45 49 35 5 -7 9 -19
9 -26z m34 -79 c6 -18 -2 -32 -33 -65 l-39 -43 -13 27 c-11 25 -9 31 26 73 38
47 47 48 59 8z m24 -165 c-16 -21 -33 -40 -38 -43 -7 -5 -40 54 -40 71 0 2 17
23 37 45 l38 42 17 -39 16 -38 -30 -38z m62 -37 c11 -27 9 -33 -20 -70 -18
-22 -36 -38 -40 -36 -4 3 -13 18 -20 35 -12 29 -11 33 21 66 18 18 36 34 40
34 4 0 12 -13 19 -29z m29 -182 c-17 -21 -32 -39 -35 -39 -2 0 -12 17 -23 38
l-19 38 36 43 36 44 18 -43 18 -42 -31 -39z m55 -15 c10 -27 7 -43 -20 -86
l-26 -41 -14 24 c-19 34 -17 46 12 85 29 38 39 42 48 18z"></path>
<path d="M420 1534 c-160 -17 -184 -25 -175 -57 4 -12 60 -150 124 -307 83
-202 122 -286 134 -288 10 -2 17 3 17 11 0 8 -54 142 -120 298 -66 155 -118
284 -117 285 2 2 67 10 145 17 79 8 146 17 149 20 7 8 -4 37 -14 36 -4 -1 -69
-8 -143 -15z"></path>
<path d="M923 1448 c-4 -7 -22 -53 -39 -103 l-31 -90 -21 41 c-45 89 -83 87
-128 -6 l-32 -65 -11 45 c-36 137 -41 150 -62 150 -30 0 -33 -23 -14 -123 22
-115 37 -153 65 -162 29 -9 54 15 86 84 l26 55 20 -39 c28 -55 47 -75 73 -75
33 0 54 30 82 117 31 96 36 176 11 181 -9 2 -20 -3 -25 -10z"></path>
<path d="M731 1121 c-39 -39 -54 -83 -55 -161 -1 -83 23 -164 54 -180 38 -20
78 -12 104 23 47 62 58 206 20 278 -29 57 -87 76 -123 40z m61 -73 c15 -29 15
-144 -1 -182 -11 -27 -13 -28 -28 -13 -11 11 -18 40 -21 95 -6 105 19 155 50
100z"></path>
<path d="M856 690 c-25 -62 -29 -68 -43 -55 -24 24 -52 18 -73 -17 -13 -21
-20 -27 -23 -17 -20 72 -34 104 -48 107 -9 2 -19 -3 -22 -11 -7 -18 18 -169
32 -196 23 -42 64 -20 91 47 12 30 14 31 30 17 40 -36 56 -19 96 98 29 85 30
97 6 97 -14 0 -26 -19 -46 -70z"></path>
</g>
</svg>