<svg version="1.0" xmlns="http://www.w3.org/2000/svg" width="99.000000pt" height="160.000000pt" viewBox="0 0 99.000000 160.000000" preserveAspectRatio="xMidYMid meet">
<g transform="translate(0.000000,160.000000) scale(0.100000,-0.100000)" fill="#000000" stroke="none">
<path d="M915 1569 c-22 -17 -100 -71 -173 -120 -200 -133 -332 -191 -487
-211 l-82 -11 -40 -63 -40 -63 -7 -243 c-4 -134 -11 -353 -16 -487 -6 -139 -6
-249 -1 -254 5 -5 85 5 184 22 96 17 181 31 189 30 7 0 45 -38 83 -84 39 -47
78 -85 87 -85 20 0 57 44 183 224 l97 139 49 566 c27 311 49 590 49 619 0 63
-15 67 -75 21z m-5 -585 c-27 -308 -53 -573 -55 -590 -4 -26 -177 -284 -189
-284 -2 0 -31 43 -65 95 -39 60 -67 95 -78 95 -10 0 -93 -19 -185 -42 -92 -23
-170 -39 -174 -35 -4 4 6 224 22 489 l29 482 73 13 c166 27 323 100 533 247
74 51 135 92 137 91 2 -2 -20 -254 -48 -561z m-760 -296 c-17 -254 -35 -472
-40 -483 -12 -28 -12 35 1 485 11 381 12 385 36 428 14 24 27 41 30 39 2 -3
-10 -214 -27 -469z"></path>
<path d="M820 1399 c-38 -35 -95 -75 -138 -95 -67 -33 -84 -54 -44 -54 31 0
136 56 186 99 26 23 49 41 51 39 1 -2 -19 -214 -46 -473 -26 -259 -48 -473
-49 -477 0 -5 9 -8 19 -8 25 0 21 -23 71 510 50 535 49 514 30 517 -8 1 -44
-25 -80 -58z"></path>
<path d="M292 1183 c-14 -26 -42 -169 -42 -214 0 -28 5 -41 20 -49 25 -14 48
-2 112 58 32 30 49 40 52 31 2 -8 8 -32 12 -54 10 -42 26 -52 69 -41 16 4 40
33 74 88 84 136 101 204 49 196 -17 -2 -36 -25 -69 -81 -25 -42 -49 -80 -52
-83 -3 -3 -10 12 -17 33 -13 39 -34 63 -57 63 -8 0 -37 -21 -65 -47 l-51 -48
9 45 c15 83 12 115 -13 118 -13 2 -25 -4 -31 -15z"></path>
<path d="M558 890 c-122 -45 -198 -90 -198 -117 0 -28 29 -31 82 -9 l34 15 24
-97 c12 -53 27 -107 33 -119 13 -29 37 -37 56 -19 13 14 12 29 -13 137 -15 66
-26 122 -24 124 2 2 29 15 61 29 47 20 57 29 57 49 0 19 -20 40 -33 37 -1 -1
-37 -14 -79 -30z"></path>
<path d="M696 665 c-21 -22 -78 -203 -71 -226 4 -12 16 -19 30 -19 19 0 27 10
45 56 41 112 54 172 40 189 -16 19 -25 19 -44 0z"></path>
<path d="M352 641 c-28 -17 -102 -291 -89 -326 8 -20 46 -17 58 5 5 8 16 40
24 71 l16 56 52 9 c46 8 52 12 52 34 0 22 -5 25 -44 28 -39 3 -42 5 -37 25 3
12 6 25 6 29 0 3 23 9 51 13 53 7 70 25 49 50 -14 16 -115 21 -138 6z"></path>
</g>
</svg>